<?xml version="1.0" standalone="no"?>
<!DOCTYPE svg PUBLIC "-//W3C//DTD SVG 20010904//EN"
 "http://www.w3.org/TR/2001/REC-SVG-20010904/DTD/svg10.dtd">
<svg version="1.0" xmlns="http://www.w3.org/2000/svg"
 width="1024.000000pt" height="1024.000000pt" viewBox="0 0 1024.000000 1024.000000"
 preserveAspectRatio="xMidYMid meet">
<metadata>
Created by potrace 1.14, written by Peter Selinger 2001-2017
</metadata>
<g transform="translate(0.000000,1024.000000) scale(0.100000,-0.100000)"
fill="#000000" stroke="none">
<path d="M1280 10224 c-594 -91 -1081 -528 -1231 -1105 -50 -194 -48 2 -48
-4004 0 -3641 1 -3753 19 -3855 11 -58 26 -130 35 -160 9 -30 18 -62 20 -70
30 -117 150 -337 253 -465 104 -130 282 -286 391 -346 20 -11 43 -24 51 -29
47 -31 222 -103 312 -129 214 -60 -68 -56 4053 -56 l3790 0 103 23 c113 25
227 60 288 87 357 160 602 390 768 722 41 82 101 242 112 297 12 66 24 125 31
151 4 17 8 1729 9 3805 2 4046 5 3839 -46 4035 -64 247 -208 494 -395 679 -81
80 -217 187 -288 226 -195 107 -321 153 -522 189 -109 20 -154 20 -3860 20
-3213 -1 -3764 -3 -3845 -15z"/>
</g>
</svg>
